<svg width="96" height="48" viewBox="0 0 96 48" fill="none" xmlns="http://www.w3.org/2000/svg">
  <path d="M0 4C0 1.79086 1.79086 0 4 0H92C94.2091 0 96 1.79086 96 4V44C96 46.2091 94.2091 48 92 48H4C1.79086 48 0 46.2091 0 44V4Z" fill="url(#paint0_linear_13_12)"/>
  <g filter="url(#filter0_i_13_12)">
  <path d="M0 11.5623C0 11.5623 2.49999 3.28257 21 11.5623C39.5 19.8419 44.35 12.7693 53.5 15.4406C67 19.3819 71.6736 5.15693 83 6.04246C90.1354 6.60032 96 15.4406 96 15.4406V32H72H48H0V11.5623Z" fill="url(#paint1_linear_13_12)"/>
  </g>
  <g filter="url(#filter1_i_13_12)">
  <path d="M0 32.7563C0 29.9678 2.78577 28.0081 5.44419 28.8499C12.0257 30.9338 22.4755 33.6994 24.5 31C27.5 27 46.9338 27.8009 56.5 27C67.8276 26.0516 66.6736 25.5374 78 26.5C82.8012 26.908 89.2908 28.3516 93.0229 29.2524C94.785 29.6777 96 31.2614 96 33.0741V44C96 46.2091 94.2091 48 92 48H4C1.79086 48 0 46.2091 0 44V32.7563Z" fill="url(#paint2_linear_13_12)"/>
  </g>
  <defs>
  <filter id="filter0_i_13_12" x="0" y="6.00266" width="96" height="28.9973" filterUnits="userSpaceOnUse" color-interpolation-filters="sRGB">
  <feFlood flood-opacity="0" result="BackgroundImageFix"/>
  <feBlend mode="normal" in="SourceGraphic" in2="BackgroundImageFix" result="shape"/>
  <feColorMatrix in="SourceAlpha" type="matrix" values="0 0 0 0 0 0 0 0 0 0 0 0 0 0 0 0 0 0 127 0" result="hardAlpha"/>
  <feOffset dy="3"/>
  <feGaussianBlur stdDeviation="10"/>
  <feComposite in2="hardAlpha" operator="arithmetic" k2="-1" k3="1"/>
  <feColorMatrix type="matrix" values="0 0 0 0 0.945098 0 0 0 0 0.34902 0 0 0 0 0.560784 0 0 0 1 0"/>
  <feBlend mode="normal" in2="shape" result="effect1_innerShadow_13_12"/>
  </filter>
  <filter id="filter1_i_13_12" x="0" y="25.9851" width="96" height="24.0149" filterUnits="userSpaceOnUse" color-interpolation-filters="sRGB">
  <feFlood flood-opacity="0" result="BackgroundImageFix"/>
  <feBlend mode="normal" in="SourceGraphic" in2="BackgroundImageFix" result="shape"/>
  <feColorMatrix in="SourceAlpha" type="matrix" values="0 0 0 0 0 0 0 0 0 0 0 0 0 0 0 0 0 0 127 0" result="hardAlpha"/>
  <feOffset dy="2"/>
  <feGaussianBlur stdDeviation="5"/>
  <feComposite in2="hardAlpha" operator="arithmetic" k2="-1" k3="1"/>
  <feColorMatrix type="matrix" values="0 0 0 0 1 0 0 0 0 0.42353 0 0 0 0 0.00784314 0 0 0 0.21 0"/>
  <feBlend mode="normal" in2="shape" result="effect1_innerShadow_13_12"/>
  </filter>
  <linearGradient id="paint0_linear_13_12" x1="96" y1="1.49999" x2="1.94833e-06" y2="5.5" gradientUnits="userSpaceOnUse">
  <stop stop-color="#42805C"/>
  <stop offset="1" stop-color="#62B763"/>
  </linearGradient>
  <linearGradient id="paint1_linear_13_12" x1="95" y1="20.3019" x2="0.999984" y2="20.3019" gradientUnits="userSpaceOnUse">
  <stop stop-color="#A69D18"/>
  <stop offset="0.513701" stop-color="#DC0195" stop-opacity="0.67"/>
  <stop offset="1" stop-color="#A69D18" stop-opacity="0.81"/>
  </linearGradient>
  <linearGradient id="paint2_linear_13_12" x1="-4.83692e-07" y1="39.5" x2="96" y2="39" gradientUnits="userSpaceOnUse">
  <stop stop-color="#978E17"/>
  <stop offset="1" stop-color="#FF6C02"/>
  </linearGradient>
  </defs>
  </svg>
  