<svg width="96" height="48" viewBox="0 0 96 48" fill="none" xmlns="http://www.w3.org/2000/svg">
  <path d="M0 4C0 1.79086 1.79086 0 4 0H92C94.2091 0 96 1.79086 96 4V44C96 46.2091 94.2091 48 92 48H4C1.79086 48 0 46.2091 0 44V4Z" fill="url(#paint0_linear_3_11)"/>
  <g filter="url(#filter0_i_3_11)">
  <path d="M0 11.5623C0 11.5623 -5.72205e-06 10.1823 18.5 18.462C37 26.7417 39.85 11.8493 49 14.5207C62.5 18.462 71.6736 5.15693 83 6.04245C90.1354 6.60031 96 15.4406 96 15.4406V32H72H48H0V11.5623Z" fill="url(#paint1_linear_3_11)"/>
  </g>
  <g filter="url(#filter1_i_3_11)">
  <path d="M0 32.4873C0 29.7751 2.6494 27.8127 5.28013 28.4723C10.3161 29.735 18.0653 31.3064 24.5 31C35 30.5 39.4338 29.801 49 29C60.3276 28.0516 66.6736 25.5374 78 26.5C82.8012 26.908 89.2908 28.3516 93.0229 29.2524C94.785 29.6777 96 31.2614 96 33.0741V44C96 46.2091 94.2091 48 92 48H4C1.79086 48 0 46.2091 0 44V32.4873Z" fill="url(#paint2_linear_3_11)"/>
  </g>
  <defs>
  <filter id="filter0_i_3_11" x="0" y="6" width="96" height="29" filterUnits="userSpaceOnUse" color-interpolation-filters="sRGB">
  <feFlood flood-opacity="0" result="BackgroundImageFix"/>
  <feBlend mode="normal" in="SourceGraphic" in2="BackgroundImageFix" result="shape"/>
  <feColorMatrix in="SourceAlpha" type="matrix" values="0 0 0 0 0 0 0 0 0 0 0 0 0 0 0 0 0 0 127 0" result="hardAlpha"/>
  <feOffset dy="3"/>
  <feGaussianBlur stdDeviation="10"/>
  <feComposite in2="hardAlpha" operator="arithmetic" k2="-1" k3="1"/>
  <feColorMatrix type="matrix" values="0 0 0 0 0.945098 0 0 0 0 0.34902 0 0 0 0 0.560784 0 0 0 1 0"/>
  <feBlend mode="normal" in2="shape" result="effect1_innerShadow_3_11"/>
  </filter>
  <filter id="filter1_i_3_11" x="0" y="26.2842" width="96" height="23.7158" filterUnits="userSpaceOnUse" color-interpolation-filters="sRGB">
  <feFlood flood-opacity="0" result="BackgroundImageFix"/>
  <feBlend mode="normal" in="SourceGraphic" in2="BackgroundImageFix" result="shape"/>
  <feColorMatrix in="SourceAlpha" type="matrix" values="0 0 0 0 0 0 0 0 0 0 0 0 0 0 0 0 0 0 127 0" result="hardAlpha"/>
  <feOffset dy="2"/>
  <feGaussianBlur stdDeviation="5"/>
  <feComposite in2="hardAlpha" operator="arithmetic" k2="-1" k3="1"/>
  <feColorMatrix type="matrix" values="0 0 0 0 1 0 0 0 0 0.42353 0 0 0 0 0.00784314 0 0 0 0.21 0"/>
  <feBlend mode="normal" in2="shape" result="effect1_innerShadow_3_11"/>
  </filter>
  <linearGradient id="paint0_linear_3_11" x1="96" y1="1.49999" x2="1.94833e-06" y2="5.5" gradientUnits="userSpaceOnUse">
  <stop stop-color="#CA0086"/>
  <stop offset="1" stop-color="#9C00C6"/>
  </linearGradient>
  <linearGradient id="paint1_linear_3_11" x1="95" y1="20.3019" x2="0.999984" y2="20.3019" gradientUnits="userSpaceOnUse">
  <stop stop-color="#EA2F47"/>
  <stop offset="0.513701" stop-color="#DC0195" stop-opacity="0.67"/>
  <stop offset="1" stop-color="#D702A1" stop-opacity="0.81"/>
  </linearGradient>
  <linearGradient id="paint2_linear_3_11" x1="-4.52234e-07" y1="39.5" x2="96" y2="39" gradientUnits="userSpaceOnUse">
  <stop stop-color="#CB0E95"/>
  <stop offset="1" stop-color="#FF6C02"/>
  </linearGradient>
  </defs>
  </svg>
  